<svg xmlns="http://www.w3.org/2000/svg" width="24" height="24" fill="currentColor" class="bi bi-instagram" viewBox="0 0 16 16">
  <path d="M8 0C5.8 0 5.536.013 4.689.072c-.828.058-1.399.24-1.896.513a3.57 3.57 0 0 0-1.313 1.312c-.273.498-.455 1.069-.513 1.897C.013 5.537 0 5.8 0 8c0 2.2.013 2.464.072 3.311.058.828.24 1.399.513 1.896.309.575.737 1.003 1.313 1.313.498.273 1.069.455 1.897.513.847.059 1.11.072 3.311.072 2.2 0 2.464-.013 3.311-.072.828-.058 1.399-.24 1.896-.513a3.573 3.573 0 0 0 1.313-1.313c.273-.498.455-1.069.513-1.897.059-.847.072-1.11.072-3.311 0-2.2-.013-2.464-.072-3.311-.058-.828-.24-1.399-.513-1.897a3.57 3.57 0 0 0-1.313-1.312c-.498-.273-1.069-.455-1.897-.513C10.464.013 10.2 0 8 0zm0 1.084c2.137 0 2.388.011 3.233.067.78.054 1.204.25 1.485.413.35.204.602.455.806.806.164.281.36.705.413 1.485.056.845.067 1.096.067 3.233 0 2.137-.011 2.388-.067 3.233-.054.78-.25 1.204-.413 1.485a2.465 2.465 0 0 1-.806.806c-.281.164-.705.36-1.485.413-.845.056-1.096.067-3.233.067-2.137 0-2.388-.011-3.233-.067-.78-.054-1.204-.25-1.485-.413a2.465 2.465 0 0 1-.806-.806c-.164-.281-.36-.705-.413-1.485-.056-.845-.067-1.096-.067-3.233 0-2.137.011-2.388.067-3.233.054-.78.25-1.204.413-1.485.204-.35.455-.602.806-.806.281-.164.705-.36 1.485-.413C5.612 1.095 5.863 1.084 8 1.084z"/>
  <path d="M8 3.89a4.11 4.11 0 1 0 0 8.222 4.11 4.11 0 0 0 0-8.222zm0 6.738a2.628 2.628 0 1 1 0-5.256 2.628 2.628 0 0 1 0 5.256z"/>
  <circle cx="12.5" cy="3.5" r="1.1"/>
</svg>
