<svg xmlns="http://www.w3.org/2000/svg" viewBox="0 0 24 24" width="24" height="24">
  <path d="M12 2.16c3.17 0 3.54.01 4.79.07 1.25.06 2.27.33 3.09 1.15.82.82 1.09 1.84 1.15 3.09.06 1.25.07 1.62.07 4.79s-.01 3.54-.07 4.79c-.06 1.25-.33 2.27-1.15 3.09-.82.82-1.84 1.09-3.09 1.15-1.25.06-1.62.07-4.79.07s-3.54-.01-4.79-.07c-1.25-.06-2.27-.33-3.09-1.15-.82-.82-1.09-1.84-1.15-3.09-.06-1.25-.07-1.54-.07-4.79s.01-3.54.07-4.79c.06-1.25.33-2.27 1.15-3.09.82-.82 1.84-1.09 3.09-1.15 1.25-.06 1.62-.07 4.79-.07zm0-2.16c-3.25 0-3.64.01-4.92.07-1.27.06-2.4.35-3.24 1.19-.84.84-1.13 1.97-1.19 3.24-.06 1.28-.07 1.67-.07 4.92s.01 3.64.07 4.92c.06 1.27.35 2.4 1.19 3.24.84.84 1.97 1.13 3.24 1.19 1.28.06 1.67.07 4.92.07s3.64-.01 4.92-.07c1.27-.06 2.4-.35 3.24-1.19.84-.84 1.13-1.97 1.19-3.24.06-1.28.07-1.67.07-4.92s-.01-3.64-.07-4.92c-.06-1.27-.35-2.4-1.19-3.24-.84-.84-1.97-1.13-3.24-1.19-1.28-.06-1.67-.07-4.92-.07zm0 5.84a6.16 6.16 0 1 0 0 12.33 6.16 6.16 0 0 0 0-12.33zm0 10.5a4.34 4.34 0 1 1 0-8.68 4.34 4.34 0 0 1 0 8.68zm4.99-10.78a1.23 1.23 0 1 1 0-2.46 1.23 1.23 0 0 1 0 2.46z"/>
</svg>
