<svg xmlns="http://www.w3.org/2000/svg" viewBox="0 0 24 24" width="24" height="24">
  <path d="M20.45 20.45h-3.6v-5.5c0-1.3-.02-2.98-1.81-2.98-1.83 0-2.11 1.43-2.11 2.91v5.57h-3.6v-11.1h3.46v1.5h.05c.48-.92 1.65-1.89 3.4-1.89 3.63 0 4.3 2.39 4.3 5.49v6.99zm-11.68-13.46c-1.14 0-2.07-.93-2.07-2.07 0-1.14.93-2.07 2.07-2.07 1.14 0 2.07.93 2.07 2.07 0 1.14-.93 2.07-2.07 2.07zm1.8 13.46h-3.6v-11.1h3.6v11.1zm5.63-14.99h-3.46v1.5h.05c.48-.92 1.65-1.89 3.4-1.89 3.63 0 4.3 2.39 4.3 5.49v6.99h-3.6v-5.5c0-1.3-.02-2.98-1.81-2.98-1.83 0-2.11 1.43-2.11 2.91v5.57h-3.6v-11.1h3.46v1.5h.05c.48-.92 1.65-1.89 3.4-1.89 3.63 0 4.3 2.39 4.3 5.49v6.99z"/>
</svg>
