<svg xmlns="http://www.w3.org/2000/svg" viewBox="0 0 24 24" width="24" height="24">
  <path d="M22.46 6.003c-.79.36-1.63.6-2.53.71.91-.54 1.6-1.39 1.92-2.41-.85.5-1.79.86-2.8 1.06-.8-.85-1.94-1.38-3.21-1.38-2.43 0-4.41 1.98-4.41 4.42 0 .35.04.69.12 1.02-3.67-.18-6.94-1.94-9.13-4.62-.38.65-.59 1.41-.59 2.22 0 1.53.78 2.89 1.97 3.68-.73-.02-1.42-.22-2.02-.55-.01.02-.01.03-.01.05 0 2.15 1.53 3.96 3.55 4.37-.37.1-.76.15-1.16.15-.28 0-.56-.03-.83-.08.56 1.73 2.18 3.03 4.1 3.06-1.5 1.17-3.38 1.87-5.41 1.87-.35 0-.7-.02-1.04-.06 1.92 1.23 4.22 1.94 6.68 1.94 8.01 0 12.42-6.63 12.42-12.42 0-.19 0-.37-.01-.56.85-.61 1.59-1.38 2.18-2.26z"/>
</svg>
