<svg xmlns="http://www.w3.org/2000/svg" width="24" height="24" fill="currentColor" class="bi bi-linkedin" viewBox="0 0 16 16">
  <path d="M0 1.146C0 .513.324 0 .725 0h14.55c.4 0 .725.513.725 1.146v13.708c0 .633-.324 1.146-.725 1.146H.725A.723.723 0 0 1 0 14.854V1.146zm4.943 12.248V6.169H3.128v7.225h1.815zM4.035 5.126c.619 0 1.007-.43 1.007-.966C5.042 3.633 4.654 3.2 4.035 3.2c-.62 0-1.007.433-1.007.96 0 .535.388.966 1.007.966zm3.31 8.268V9.359c0-.203.015-.406.074-.552.16-.406.526-.827 1.141-.827.804 0 1.125.623 1.125 1.536v4.078h1.814V9.256c0-2.022-1.082-2.961-2.526-2.961-1.16 0-1.688.642-1.981 1.095h.027v-.926H6.358c.027.604 0 7.225 0 7.225h1.815z"/>
</svg>
