<svg xmlns="http://www.w3.org/2000/svg" width="24" height="24" fill="currentColor" class="bi bi-twitter" viewBox="0 0 16 16">
  <path d="M5.026 15c6.038 0 9.341-5.003 9.341-9.334 0-.142 0-.284-.006-.425A6.676 6.676 0 0 0 16 3.542a6.658 6.658 0 0 1-1.889.518A3.301 3.301 0 0 0 15.555 2a6.557 6.557 0 0 1-2.085.797 3.286 3.286 0 0 0-5.593 2.992A9.325 9.325 0 0 1 1.114 2.882a3.286 3.286 0 0 0 1.015 4.382A3.323 3.323 0 0 1 .64 6.575v.041A3.286 3.286 0 0 0 3.277 10a3.203 3.203 0 0 1-.865.114 3.23 3.23 0 0 1-.614-.059 3.286 3.286 0 0 0 3.067 2.277A6.588 6.588 0 0 1 .781 13.58a6.32 6.32 0 0 1-.781-.046A9.344 9.344 0 0 0 5.026 15z"/>
</svg>
